<?xml version="1.0" standalone="no"?>
<!DOCTYPE svg PUBLIC "-//W3C//DTD SVG 20010904//EN"
 "http://www.w3.org/TR/2001/REC-SVG-20010904/DTD/svg10.dtd">
<svg version="1.0" xmlns="http://www.w3.org/2000/svg"
 width="1024.000000pt" height="1024.000000pt" viewBox="0 0 1024.000000 1024.000000"
 preserveAspectRatio="xMidYMid meet">

<g transform="translate(0.000000,1024.000000) scale(0.100000,-0.100000)"
fill="#000000" stroke="none">
<path d="M5775 8602 c6 -5 55 -26 110 -47 55 -21 151 -62 213 -91 61 -29 112
-51 112 -49 0 3 -14 12 -31 20 -47 25 -27 29 23 5 53 -26 22 2 -37 32 -31 17
-37 17 -26 4 19 -22 10 -20 -67 15 -72 34 -116 52 -232 93 -41 14 -70 23 -65
18z"/>
<path d="M6254 8412 c3 -6 1 -12 -5 -14 -6 -2 20 -24 57 -48 138 -91 174 -116
231 -159 85 -65 262 -240 283 -282 10 -19 26 -42 35 -49 39 -32 99 -132 216
-360 36 -69 38 -110 7 -110 -14 0 -49 -24 -88 -60 -36 -33 -72 -60 -81 -60 -8
0 -19 -4 -25 -9 -5 -6 -21 -11 -36 -13 -15 -2 -30 -6 -33 -10 -7 -6 -7 -12
-40 -339 -13 -135 -27 -252 -29 -260 -3 -8 -7 -32 -10 -54 -12 -100 -110 -331
-176 -415 -17 -21 -30 -43 -30 -49 0 -21 -78 -100 -225 -228 -101 -88 -165
-134 -176 -127 -5 3 -9 1 -9 -4 0 -6 -17 -17 -37 -25 -79 -32 -198 -91 -214
-106 -9 -9 -22 -36 -29 -60 -8 -32 -27 -59 -67 -98 -31 -29 -60 -53 -64 -53
-5 0 -9 -9 -9 -20 0 -11 -5 -20 -12 -20 -6 0 -8 -3 -5 -6 9 -9 -41 -47 -51
-40 -5 3 -60 -8 -123 -23 -63 -16 -152 -32 -199 -36 -47 -4 -96 -12 -110 -17
-14 -5 -27 -9 -30 -8 -3 0 -8 -25 -11 -55 -5 -41 -13 -64 -32 -83 -31 -33 -52
-82 -35 -82 6 0 9 -3 6 -6 -4 -3 -16 0 -28 6 -25 13 -52 -2 -43 -26 3 -8 0
-14 -7 -14 -6 0 -9 4 -5 9 3 5 1 12 -4 15 -12 8 -71 -63 -71 -84 0 -12 2 -12
9 -1 5 8 11 9 15 3 3 -5 -1 -12 -9 -16 -8 -3 -15 -13 -15 -21 0 -10 5 -13 12
-9 6 4 3 -5 -8 -19 -10 -15 -27 -29 -36 -32 -19 -7 -25 -25 -8 -25 6 0 10 -9
10 -20 0 -11 -4 -20 -8 -20 -4 0 -8 -9 -9 -20 -1 -12 4 -20 13 -20 8 0 13 -4
9 -9 -3 -5 -1 -12 5 -16 5 -3 10 -15 10 -26 0 -12 -4 -17 -11 -14 -14 9 -49
-24 -49 -47 0 -10 -4 -18 -10 -18 -5 0 -10 -12 -10 -26 0 -14 -4 -23 -8 -20
-11 6 -39 -26 -44 -51 -2 -10 -11 -17 -21 -17 -9 1 -14 -2 -11 -7 3 -5 1 -9
-4 -9 -5 0 -9 -10 -9 -22 -1 -13 -1 -28 -2 -35 0 -6 -21 -26 -46 -44 -56 -40
-61 -57 -35 -108 23 -45 26 -87 8 -94 -10 -3 -10 -7 -2 -18 12 -14 11 -30 -1
-68 -3 -11 -2 -21 3 -21 5 0 9 -7 9 -15 0 -8 -4 -12 -9 -9 -4 3 -8 -19 -9 -48
0 -39 -3 -48 -9 -33 -7 17 -9 15 -9 -12 -1 -19 4 -33 10 -33 8 0 10 -17 4 -57
-4 -32 -7 -66 -7 -75 1 -10 -4 -18 -10 -18 -7 0 -8 -12 -3 -32 4 -18 7 -42 7
-53 -1 -11 3 -22 9 -25 5 -4 10 -29 11 -56 1 -27 5 -56 9 -65 6 -11 2 -26 -12
-43 -11 -14 -15 -26 -9 -26 16 0 3 -37 -21 -61 -10 -10 -19 -26 -19 -34 0 -9
-12 -27 -27 -41 -15 -14 -19 -22 -10 -18 10 3 17 1 17 -6 0 -6 7 -18 15 -27
16 -15 15 -39 -1 -36 -13 2 -14 -101 -2 -108 6 -4 7 -12 3 -19 -6 -9 -9 -9
-15 0 -5 9 -13 9 -27 1 -11 -5 -23 -7 -27 -4 -3 3 -6 1 -6 -6 0 -9 -9 -12 -24
-9 -16 3 -32 -4 -53 -26 -16 -17 -42 -32 -59 -34 -35 -4 -34 -3 -37 -38 -2
-31 -52 -78 -70 -67 -5 3 -13 -1 -18 -8 -7 -12 -9 -12 -9 0 0 7 -30 -16 -67
-52 -157 -151 -299 -219 -508 -242 -75 -8 -201 17 -266 52 -46 25 -133 118
-171 183 -22 38 -19 35 62 -64 44 -54 68 -74 127 -103 65 -32 84 -37 172 -41
109 -5 267 21 240 40 -10 7 -9 8 7 4 13 -4 48 7 95 30 293 145 513 455 605
854 55 239 55 660 -1 995 -3 17 -7 46 -10 65 -8 48 -43 236 -65 350 -26 126
-128 530 -180 705 -22 77 -67 232 -100 345 -51 176 -142 451 -300 905 -195
562 -432 1058 -567 1191 -23 23 -68 52 -99 64 -51 21 -55 25 -39 37 30 21 12
24 -23 3 -37 -22 -42 -40 -11 -40 26 0 50 -13 116 -62 93 -68 175 -199 304
-484 118 -261 243 -567 305 -744 158 -455 399 -1220 430 -1365 3 -16 20 -77
36 -135 17 -58 36 -134 44 -170 127 -581 162 -809 171 -1123 6 -229 -6 -437
-32 -532 -63 -232 -105 -328 -222 -505 -124 -187 -279 -300 -425 -308 -38 -3
-89 1 -112 8 -37 10 -45 17 -50 42 -3 17 -3 34 0 39 3 5 -1 9 -8 9 -10 0 -13
26 -14 103 -1 56 -4 116 -7 132 -10 57 -26 130 -36 162 -5 17 -7 34 -3 37 3 3
-2 6 -10 6 -10 0 -18 12 -22 33 -8 41 -89 181 -117 200 -17 12 -19 19 -10 35
30 57 8 137 -51 187 -89 76 -194 96 -498 98 -171 1 -215 -1 -265 -16 -140 -43
-213 -127 -256 -299 -23 -91 -21 -201 5 -328 18 -83 82 -231 143 -328 104
-167 305 -381 451 -480 54 -37 90 -68 86 -74 -4 -7 -2 -8 4 -4 6 3 16 -2 21
-13 8 -14 8 -20 -1 -23 -16 -6 -39 -86 -26 -94 6 -4 6 -9 -2 -14 -8 -5 3 -11
29 -15 22 -4 39 -10 36 -15 -5 -8 32 -60 52 -73 7 -4 13 -13 13 -18 0 -18 83
-97 113 -108 16 -6 42 -11 58 -11 16 0 29 -4 29 -8 0 -33 694 -43 2095 -31
1008 10 1428 22 1640 50 44 6 105 12 135 14 95 7 175 17 185 23 6 4 19 8 30 9
11 2 24 8 29 13 6 6 18 10 27 10 10 0 24 7 32 15 8 8 29 16 47 17 17 1 34 6
36 10 3 4 27 10 54 14 28 4 50 10 50 14 0 8 77 26 93 22 4 -1 7 2 7 7 0 6 8
10 18 10 9 1 40 5 67 9 36 6 45 11 33 16 -22 10 -14 26 13 26 10 0 20 6 21 13
4 36 2 43 -14 55 -10 8 -18 19 -17 25 4 32 -2 68 -10 62 -5 -3 -13 0 -17 6 -4
8 -9 7 -15 -2 -6 -10 -9 -7 -9 11 0 18 -3 21 -9 12 -10 -17 -21 6 -21 47 0 15
-3 31 -7 35 -15 15 -11 76 4 76 8 0 13 6 10 13 -2 6 0 22 4 35 5 12 5 22 0 22
-8 0 -20 37 -26 80 -2 8 -6 27 -10 43 -5 17 -3 27 4 27 14 0 2 182 -13 193 -8
5 -6 10 4 17 8 5 10 10 5 10 -6 0 -12 32 -13 73 -2 51 0 68 8 57 6 -9 10 -10
10 -3 0 6 -4 14 -8 17 -4 2 -9 19 -10 38 -2 25 0 29 8 18 8 -13 10 -13 10 2 0
9 -6 19 -12 22 -10 4 -10 8 -2 11 8 4 11 37 9 101 -3 71 -1 93 8 87 7 -4 6 1
-2 11 -11 13 -14 45 -14 127 1 60 -3 111 -8 114 -13 8 -11 62 2 71 8 4 8 9 1
13 -17 10 -24 71 -11 87 7 8 7 14 2 14 -6 0 -13 15 -16 33 -3 17 -9 41 -13 51
-5 13 -4 17 4 12 8 -4 10 -2 6 8 -3 8 -12 17 -19 20 -8 3 -11 13 -8 25 6 25
-15 83 -28 75 -5 -3 -9 0 -9 6 0 6 -9 20 -20 32 -15 16 -20 36 -20 74 0 33 -5
56 -14 64 -8 6 -12 19 -9 27 4 11 2 14 -5 9 -11 -6 -17 5 -13 27 0 4 -6 7 -14
7 -8 0 -15 9 -15 20 0 11 -4 20 -10 20 -5 0 -10 16 -10 35 0 22 -6 38 -17 44
-14 8 -14 10 -4 11 12 0 12 3 3 12 -7 7 -12 20 -12 30 0 10 -4 18 -10 18 -5 0
-10 10 -10 23 0 13 -7 32 -15 43 -8 10 -15 27 -15 36 0 10 -3 17 -7 17 -5 -1
-11 0 -15 1 -5 1 -13 3 -19 4 -7 0 -17 10 -23 21 -6 11 -38 62 -71 114 -52 82
-60 101 -61 144 0 31 -6 52 -15 58 -8 5 -10 9 -5 9 5 0 3 7 -4 15 -7 8 -10 24
-7 35 3 12 0 32 -7 45 -14 27 -14 106 -2 226 6 52 5 82 -3 97 -9 17 -8 23 5
30 11 6 13 16 9 35 -4 15 -11 24 -16 21 -5 -3 -9 0 -9 5 0 6 4 11 9 11 5 0 9
55 9 123 -1 90 3 132 15 158 8 19 18 52 22 74 4 22 10 45 15 50 9 12 8 101 -2
111 -12 11 -10 114 2 114 16 0 12 37 -4 43 -11 5 -13 13 -7 35 5 16 5 36 0 43
-4 8 -14 47 -20 87 -6 39 -16 72 -21 72 -5 0 -6 9 -3 20 4 12 2 20 -5 20 -6 0
-10 6 -9 13 6 34 -40 144 -77 184 -29 31 -34 70 -34 259 0 158 -8 235 -34 324
-7 25 -19 70 -26 100 -16 69 -75 217 -94 236 -8 8 -31 47 -52 87 -43 85 -91
157 -104 157 -6 0 -9 3 -8 8 6 19 -126 187 -219 278 -60 58 -262 217 -313 245
-14 8 -42 27 -62 42 -21 16 -41 26 -46 23 -4 -2 -14 0 -22 6 -12 8 -12 9 3 4
24 -8 21 1 -4 15 -13 6 -19 7 -15 1z m849 -1947 c-10 -26 -25 -45 -34 -45 -14
0 -14 6 -1 63 18 70 33 88 45 51 6 -17 3 -38 -10 -69z m58 -22 c-12 -20 -14
-14 -5 12 4 9 9 14 11 11 3 -2 0 -13 -6 -23z m-11 -38 c0 -5 -5 -3 -10 5 -5 8
-10 20 -10 25 0 6 5 3 10 -5 5 -8 10 -19 10 -25z m-175 -152 c-7 -21 -22 -48
-34 -61 -12 -13 -19 -27 -17 -31 3 -4 -7 -8 -20 -9 l-25 -2 20 29 c12 16 21
34 21 40 0 6 5 11 10 11 14 0 13 -13 -2 -28 -8 -8 -8 -12 -1 -12 14 0 24 26
16 45 -5 15 22 55 37 55 4 0 2 -17 -5 -37z m95 -24 c-99 -192 -385 -484 -564
-575 -31 -16 -68 -40 -81 -54 l-24 -25 38 3 c21 2 49 -2 62 -9 23 -12 23 -12
4 -19 -16 -6 -7 -14 50 -43 69 -34 270 -172 294 -201 10 -12 9 -14 -8 -9 -12
3 -18 9 -15 14 3 5 -4 9 -15 9 -10 0 -21 4 -23 8 -10 25 -227 152 -259 152 -9
0 -25 3 -34 6 -13 6 -14 9 -3 16 9 7 7 8 -10 5 -12 -3 -20 -1 -17 3 3 5 -13
14 -35 20 -22 6 -40 16 -40 22 0 6 -3 8 -6 5 -9 -8 -44 11 -44 23 0 6 10 10
22 10 11 0 37 12 57 28 20 15 48 34 62 42 162 94 253 166 355 277 96 105 193
232 223 291 12 23 24 42 26 42 3 0 -4 -18 -15 -41z m-1000 -944 c105 -23 213
-70 298 -128 79 -54 209 -187 275 -279 23 -32 45 -58 49 -58 4 0 8 -7 8 -15 0
-8 7 -15 16 -15 8 0 12 -5 9 -10 -8 -13 64 -132 76 -125 5 4 6 0 3 -8 -3 -8
-1 -18 5 -22 10 -5 15 7 12 28 -2 16 17 5 27 -15 6 -13 11 -17 11 -10 1 7 6
10 13 6 7 -4 8 -3 4 4 -4 6 -1 24 7 39 8 15 17 40 21 55 5 22 3 26 -9 22 -11
-4 -15 0 -15 16 0 25 -25 54 -39 45 -12 -7 -23 28 -15 49 3 9 1 16 -5 16 -6 0
-11 5 -11 11 0 5 5 7 10 4 16 -10 23 21 10 44 -9 17 -7 24 10 38 11 10 20 25
20 35 0 9 8 19 18 22 37 12 54 61 48 142 l-5 74 32 -17 c17 -10 124 -110 237
-223 177 -176 211 -214 237 -270 65 -137 72 -157 66 -180 -5 -18 -3 -21 8 -15
11 6 11 5 2 -5 -6 -7 -9 -18 -7 -25 3 -8 -4 -10 -25 -7 -17 2 -29 7 -27 11 2
3 -2 12 -10 19 -12 11 -16 8 -25 -15 -6 -15 -15 -36 -20 -45 -5 -10 -9 -26 -9
-35 0 -15 -2 -16 -10 -3 -7 10 -10 11 -11 3 -2 -22 -4 -27 -26 -76 -22 -47
-53 -88 -53 -69 0 6 -9 8 -20 5 -11 -3 -20 -11 -20 -18 0 -7 -6 -15 -12 -17
-9 -3 -8 -9 5 -22 18 -19 24 -41 7 -31 -5 3 -7 0 -4 -9 6 -15 -94 -188 -127
-219 -10 -10 -19 -25 -19 -33 0 -8 -4 -12 -10 -9 -5 3 -10 1 -10 -5 0 -10 -7
-21 -36 -54 -7 -7 -14 -21 -16 -32 -2 -10 -9 44 -16 121 -24 267 -56 349 -269
685 -187 294 -217 333 -332 424 -182 144 -316 181 -656 181 -231 0 -497 -27
-526 -52 -15 -12 -18 -52 -22 -311 -3 -197 -10 -332 -21 -402 -9 -58 -20 -148
-26 -200 -5 -52 -18 -124 -30 -160 -11 -36 -23 -90 -26 -120 -3 -30 -15 -67
-25 -82 -10 -15 -19 -40 -19 -55 0 -24 -26 -101 -92 -273 -12 -30 -27 -59 -34
-65 -7 -5 -31 -59 -53 -118 -22 -59 -49 -121 -61 -136 -11 -16 -42 -75 -70
-132 -28 -57 -54 -111 -60 -119 -5 -8 -16 -31 -25 -50 -8 -19 -25 -46 -36 -60
l-20 -25 15 38 c8 20 55 115 104 211 97 187 195 400 216 469 8 23 36 107 64
187 27 80 60 190 71 245 12 55 28 127 36 160 45 185 69 440 69 742 1 176 5
276 12 283 9 9 64 17 379 55 145 17 406 12 505 -10z m-928 -477 c-7 -7 -12 -8
-12 -2 0 14 12 26 19 19 2 -3 -1 -11 -7 -17z m2517 -598 l-1 -35 -8 29 c-5 15
-11 53 -14 85 l-6 56 15 -50 c8 -27 14 -66 14 -85z m-100 74 c6 4 11 1 11 -6
1 -7 3 -39 6 -70 6 -58 -11 -158 -27 -158 -4 0 -12 8 -18 18 -5 9 -12 16 -15
15 -16 -8 -26 -1 -26 17 0 11 -4 20 -9 20 -16 0 2 55 26 76 18 16 24 31 25 63
0 25 4 38 8 31 4 -7 13 -9 19 -6z m-1191 -173 c-2 -20 5 -26 30 -25 16 0 34 4
40 8 7 4 12 1 12 -8 0 -9 7 -16 16 -16 8 0 13 -4 10 -9 -7 -11 22 -23 36 -15
5 3 19 -4 31 -16 19 -22 21 -22 27 -5 5 13 9 15 14 7 4 -7 5 -16 1 -21 -3 -5
5 -11 17 -13 12 -2 28 -14 34 -26 7 -14 13 -19 16 -12 2 8 11 2 21 -14 17 -26
17 -31 -3 -124 -31 -146 -56 -215 -127 -352 -89 -172 -200 -334 -294 -426 -43
-43 -76 -81 -73 -86 3 -4 -1 -5 -9 -2 -8 3 -17 -1 -20 -8 -7 -20 -145 -110
-277 -181 -77 -42 -298 -123 -307 -113 -3 2 4 7 15 10 17 6 20 16 20 69 0 75
8 176 16 197 3 8 8 33 10 55 6 53 16 85 27 85 5 0 9 9 9 20 0 11 5 20 10 20 6
0 10 11 10 25 0 14 4 25 9 25 5 0 8 8 6 18 -1 9 3 24 10 32 7 8 18 30 26 48 8
17 17 32 21 32 4 0 5 7 2 15 -4 8 -2 15 3 15 8 0 13 18 16 63 1 9 5 17 9 17 4
0 7 3 6 8 -1 4 6 22 16 41 10 18 13 30 7 27 -6 -4 -11 -3 -11 3 0 5 9 13 21
16 15 5 18 10 10 18 -14 14 -15 30 -1 22 7 -4 7 3 0 20 -5 14 -6 24 -1 21 9
-6 43 113 50 177 1 4 8 7 17 7 8 0 13 4 9 9 -3 5 11 15 30 21 19 6 33 15 31
19 -3 4 1 8 9 8 8 0 12 -4 9 -9 -6 -10 8 -10 30 -2 13 5 14 9 5 20 -9 11 -8
15 4 20 12 4 15 14 10 36 -4 22 -3 29 5 24 8 -5 12 0 12 13 0 14 6 21 19 21
11 0 31 14 44 30 14 17 30 30 36 30 6 0 13 11 17 25 4 18 13 25 30 25 17 0 24
6 24 20 0 14 6 20 23 19 21 0 21 -1 2 -9 -17 -7 -17 -9 -2 -9 15 -1 58 32 54
41 -1 2 3 -2 8 -8 6 -6 18 -8 30 -3 17 6 17 8 3 8 -10 1 -18 5 -18 10 0 4 11
6 25 4 13 -3 24 -8 23 -12z m1193 -195 c9 -18 8 -33 0 -57 -6 -17 -11 -45 -11
-60 0 -15 -4 -30 -9 -33 -10 -6 -17 103 -10 159 3 23 18 18 30 -9z m-4619
-106 c47 -14 116 -65 145 -109 33 -49 30 -118 -8 -232 -29 -86 -31 -101 -27
-204 2 -67 8 -118 15 -126 6 -8 17 -28 22 -44 10 -28 10 -29 -4 -11 -8 11 -15
26 -15 33 0 8 -10 17 -22 22 -28 11 -121 -36 -113 -56 4 -12 -13 -18 -42 -14
-19 3 -97 -35 -116 -56 -16 -18 -15 -19 23 -21 35 -2 40 0 40 18 0 14 -4 19
-12 14 -7 -4 -8 -3 -4 5 7 10 42 7 55 -5 6 -6 -36 -44 -49 -44 -16 0 -12 -18
10 -40 11 -11 16 -20 11 -20 -5 0 -14 -13 -20 -29 -25 -59 -82 -60 -137 -2
-28 30 -74 42 -74 20 0 -21 41 -78 72 -100 23 -16 27 -24 16 -30 -10 -6 2 -23
46 -64 33 -30 64 -55 69 -55 5 0 7 -6 4 -14 -4 -9 19 -36 61 -73 37 -32 69
-60 72 -63 4 -5 104 -71 236 -157 18 -12 18 -12 -1 -6 -11 3 -24 9 -30 14 -5
4 -32 19 -60 34 -240 132 -498 433 -606 707 -54 137 -67 354 -29 468 12 36 28
76 35 90 24 46 89 104 155 138 63 33 67 34 155 28 50 -3 107 -10 127 -16z
m4595 -92 c-3 -7 -5 -2 -5 12 0 14 2 19 5 13 2 -7 2 -19 0 -25z m-547 -74
c-17 -51 -23 -35 -8 22 7 27 14 41 16 31 2 -9 -2 -33 -8 -53z m-56 -151 c-30
-68 -83 -163 -101 -181 -7 -7 -13 -19 -13 -27 0 -7 -15 -31 -34 -54 -19 -22
-54 -75 -79 -118 -62 -107 -224 -273 -341 -348 -322 -209 -689 -325 -1100
-350 -171 -10 -620 -7 -731 5 -153 17 -177 38 -137 117 131 262 174 345 177
341 6 -6 -25 -91 -40 -108 -29 -33 -106 -206 -120 -269 -7 -35 -13 -33 133
-56 104 -16 516 -13 696 6 56 6 102 7 107 2 5 -5 40 -5 81 1 49 6 66 12 52 17
-11 4 8 7 46 6 38 0 85 6 114 17 27 9 55 15 62 12 7 -3 16 -1 19 5 4 5 12 8
18 7 7 -1 45 6 85 16 53 13 72 23 72 35 0 12 2 13 8 3 7 -10 16 -10 48 2 86
30 295 138 237 121 -13 -3 -31 -1 -40 5 -14 9 -9 10 29 7 41 -4 55 1 117 37
109 65 216 154 282 233 33 40 66 79 74 86 7 8 22 29 32 48 10 19 40 65 66 101
26 37 47 70 47 74 0 4 11 21 24 38 30 40 106 191 106 211 0 8 7 15 14 15 12 0
9 -12 -10 -57z m-3829 -100 c-17 -139 -11 -180 44 -312 39 -93 39 -103 -1 -26
-66 128 -84 234 -57 341 15 58 21 56 14 -3z m3520 -279 c-1 -15 -6 -29 -11
-33 -5 -3 -10 -13 -12 -21 -8 -48 -308 -286 -382 -304 -14 -3 -19 -3 -12 0 6
3 12 12 12 20 0 8 9 14 20 14 11 0 20 4 20 8 0 5 25 35 55 67 55 60 64 72 44
59 -17 -10 8 33 58 102 34 47 50 60 64 57 22 -6 22 -5 9 -37 -6 -16 -6 -27 0
-31 6 -4 10 2 10 12 0 15 2 16 10 3 7 -12 12 -9 20 17 7 18 21 35 33 39 25 8
47 28 47 43 0 6 4 11 9 11 5 0 8 -12 6 -26z m-3398 -189 c21 -42 1 -19 -26 30
-13 22 -15 31 -6 20 9 -11 23 -33 32 -50z m2783 -320 c-14 -8 -29 -14 -35 -14
-5 0 1 6 15 14 14 8 30 14 35 14 6 0 -1 -6 -15 -14z m-3015 -85 c3 -5 1 -10
-4 -10 -6 0 -11 5 -11 10 0 6 2 10 4 10 3 0 8 -4 11 -10z m1603 -57 c-10 -2
-26 -2 -35 0 -10 3 -2 5 17 5 19 0 27 -2 18 -5z m1902 -92 c0 -6 -4 -13 -10
-16 -5 -3 -10 1 -10 9 0 9 5 16 10 16 6 0 10 -4 10 -9z m-46 -26 c-4 -8 -11
-15 -16 -15 -6 0 -5 6 2 15 7 8 14 15 16 15 2 0 1 -7 -2 -15z m-3164 -40 c36
-19 61 -35 57 -35 -11 0 -127 59 -127 65 0 8 3 7 70 -30z m150 -65 c8 -5 11
-10 5 -10 -5 0 -17 5 -25 10 -8 5 -10 10 -5 10 6 0 17 -5 25 -10z m480 -131
c26 -6 22 -7 -20 -2 -30 3 -64 9 -75 14 -23 10 37 2 95 -12z"/>
<path d="M6886 4851 c-3 -4 1 -17 9 -27 14 -18 14 -18 15 9 0 26 -13 36 -24
18z"/>
<path d="M6935 4800 c-3 -5 -2 -10 4 -10 5 0 13 5 16 10 3 6 2 10 -4 10 -5 0
-13 -4 -16 -10z"/>
<path d="M6902 4660 c0 -14 2 -19 5 -12 2 6 2 18 0 25 -3 6 -5 1 -5 -13z"/>
<path d="M6388 4073 c-10 -2 -18 -8 -18 -13 0 -4 9 -6 20 -3 11 3 20 9 20 14
0 5 -1 8 -2 8 -2 -1 -11 -3 -20 -6z"/>
<path d="M5328 2443 c7 -3 16 -2 19 1 4 3 -2 6 -13 5 -11 0 -14 -3 -6 -6z"/>
<path d="M4908 2423 c6 -2 18 -2 25 0 6 3 1 5 -13 5 -14 0 -19 -2 -12 -5z"/>
<path d="M4958 2423 c7 -3 16 -2 19 1 4 3 -2 6 -13 5 -11 0 -14 -3 -6 -6z"/>
<path d="M4933 8343 c9 -2 25 -2 35 0 9 3 1 5 -18 5 -19 0 -27 -2 -17 -5z"/>
<path d="M5018 8343 c18 -2 45 -2 60 0 15 2 0 4 -33 4 -33 0 -45 -2 -27 -4z"/>
<path d="M5178 8343 c6 -2 18 -2 25 0 6 3 1 5 -13 5 -14 0 -19 -2 -12 -5z"/>
<path d="M3380 8330 c-9 -6 -10 -10 -3 -10 6 0 15 5 18 10 8 12 4 12 -15 0z"/>
<path d="M4833 8333 c9 -2 23 -2 30 0 6 3 -1 5 -18 5 -16 0 -22 -2 -12 -5z"/>
<path d="M5258 8333 c6 -2 18 -2 25 0 6 3 1 5 -13 5 -14 0 -19 -2 -12 -5z"/>
<path d="M4758 8323 c6 -2 18 -2 25 0 6 3 1 5 -13 5 -14 0 -19 -2 -12 -5z"/>
<path d="M4790 8295 c-146 -22 -436 -101 -467 -126 -24 -20 -23 -21 77 -339
24 -74 47 -151 51 -170 8 -36 43 -164 123 -451 25 -91 62 -235 82 -320 19 -85
54 -224 76 -309 40 -159 98 -390 116 -470 11 -49 81 -317 109 -420 l18 -65
190 -2 c105 -2 206 1 225 6 34 9 33 9 -20 11 l-55 2 55 9 c30 5 100 16 155 24
205 32 231 37 273 57 47 23 57 54 20 60 -40 5 -25 31 47 80 39 26 98 80 132
119 62 71 169 219 159 219 -3 0 -23 -26 -45 -57 -97 -142 -218 -251 -346 -313
-78 -37 -212 -76 -313 -90 -114 -15 -131 -2 -138 110 -1 25 -8 79 -14 120 -7
41 -13 84 -14 95 0 11 -4 23 -9 26 -4 3 -12 57 -18 119 -10 109 -8 190 7 238
3 12 2 22 -3 22 -4 0 -8 34 -8 75 0 41 -3 75 -7 75 -4 0 -5 7 -2 15 4 8 2 15
-3 15 -11 0 -11 52 -1 60 4 3 8 20 10 38 1 18 5 32 8 32 3 0 7 17 8 38 2 45 5
63 15 78 3 6 9 33 12 58 3 26 14 61 25 78 10 17 16 36 13 42 -3 6 -3 8 2 4 9
-8 95 48 95 62 0 5 8 11 19 15 10 3 32 17 47 31 58 50 68 54 77 32 4 -10 6
-10 6 0 1 6 10 12 20 12 11 0 22 6 24 13 4 9 8 8 17 -3 10 -12 11 -11 7 8 -4
15 -1 20 6 15 7 -4 30 -8 52 -9 34 -2 36 0 16 7 -38 15 -17 22 36 13 26 -4 50
-8 53 -9 3 -1 22 -5 43 -9 20 -5 37 -12 37 -16 0 -6 79 -31 110 -35 3 0 11 -4
19 -9 10 -6 12 -5 7 2 -4 7 -2 12 3 12 6 0 11 -4 11 -10 0 -5 6 -7 14 -4 8 3
19 -3 26 -16 6 -11 22 -25 36 -30 14 -6 22 -14 19 -20 -3 -5 1 -10 9 -10 9 0
21 -9 28 -20 7 -11 17 -20 22 -20 12 0 35 -32 36 -48 0 -14 34 -63 41 -59 3 1
1 -2 -2 -6 -4 -5 -4 -18 -1 -29 4 -15 7 -17 14 -6 5 8 8 -1 8 -27 0 -22 -1
-106 -1 -186 0 -146 -19 -301 -39 -307 -6 -2 -10 -12 -10 -22 0 -11 -9 -43
-20 -72 -14 -38 -16 -47 -5 -34 8 11 15 24 15 29 0 4 6 15 13 22 30 35 35 43
29 51 -4 5 0 3 9 -4 9 -6 20 -8 24 -4 5 4 5 1 1 -5 -4 -7 -2 -13 3 -13 6 0 16
20 22 44 8 33 21 51 54 76 28 21 47 45 55 71 7 21 17 39 22 39 4 0 8 4 8 9 0
5 16 26 35 47 19 21 35 46 35 56 0 10 5 18 10 18 6 0 10 11 10 25 0 14 4 25 9
25 5 0 13 10 17 22 6 20 7 20 17 3 14 -25 3 -166 -23 -299 -16 -81 -18 -112
-10 -120 7 -6 11 -7 10 -1 -4 20 0 36 9 31 14 -9 42 239 43 389 1 107 -2 153
-15 195 -9 30 -26 87 -36 125 -41 155 -171 407 -298 577 -160 215 -327 356
-548 463 -150 73 -225 97 -389 125 -139 24 -417 26 -556 5z m1492 -1867 c-8
-8 -9 -4 -5 13 4 13 8 18 11 10 2 -7 -1 -18 -6 -23z m305 10 c-3 -8 -6 -5 -6
6 -1 11 2 17 5 13 3 -3 4 -12 1 -19z"/>
<path d="M4608 8293 c7 -3 16 -2 19 1 4 3 -2 6 -13 5 -11 0 -14 -3 -6 -6z"/>
<path d="M4441 8259 c-18 -6 -31 -12 -29 -14 5 -5 78 14 78 20 0 6 -8 5 -49
-6z"/>
<path d="M4256 8188 c-8 -17 14 -97 34 -128 8 -13 10 -12 10 3 0 10 -5 27 -11
38 -5 11 -14 39 -18 62 -6 31 -10 37 -15 25z"/>
<path d="M4301 8027 c-1 -11 8 -51 20 -90 46 -162 62 -214 75 -252 l13 -40 -6
45 c-3 25 -14 68 -24 95 -10 28 -25 79 -33 115 -18 79 -44 152 -45 127z"/>
<path d="M4413 7623 c2 -10 19 -72 36 -138 32 -121 41 -144 41 -109 0 34 -68
264 -77 264 -3 0 -3 -8 0 -17z"/>
<path d="M4490 7344 c0 -5 15 -64 34 -130 18 -65 37 -135 41 -154 4 -19 10
-30 12 -23 5 13 -63 279 -77 303 -5 8 -10 10 -10 4z"/>
<path d="M4591 6965 c0 -35 27 -103 28 -70 0 11 -6 38 -14 60 -13 38 -14 39
-14 10z"/>
<path d="M4633 6815 c3 -11 13 -58 23 -104 10 -47 19 -81 21 -75 4 13 -33 184
-42 192 -4 4 -5 -2 -2 -13z"/>
<path d="M4681 6605 c0 -11 4 -29 9 -40 l9 -20 0 20 c0 11 -4 29 -9 40 l-9 20
0 -20z"/>
<path d="M4701 6524 c0 -11 3 -14 6 -6 3 7 2 16 -1 19 -3 4 -6 -2 -5 -13z"/>
<path d="M6279 6372 c-1 -7 -2 -16 -3 -22 0 -5 -10 -16 -21 -24 -11 -9 -16
-16 -11 -16 5 0 2 -8 -6 -17 -16 -18 -41 -83 -32 -83 2 0 9 11 14 25 5 14 17
25 26 25 11 0 14 5 10 16 -4 10 0 18 13 21 10 2 24 16 30 30 10 22 9 29 -3 42
-11 10 -16 11 -17 3z"/>
<path d="M6536 6305 c-8 -42 -52 -136 -69 -146 -5 -4 -6 -12 -3 -18 4 -6 3
-10 -2 -9 -5 2 -27 -19 -49 -47 -22 -27 -70 -81 -107 -120 -94 -98 -96 -101
-69 -86 48 25 200 181 227 233 16 29 35 60 42 69 21 24 51 124 44 145 -5 14
-9 9 -14 -21z m-146 -278 c0 -2 -12 -14 -27 -28 l-28 -24 24 28 c23 25 31 32
31 24z"/>
<path d="M6034 6014 c-49 -59 -107 -120 -128 -136 -25 -18 -33 -28 -22 -28 9
0 14 -4 11 -10 -3 -5 2 -10 12 -10 25 0 151 132 159 167 7 31 42 94 58 105 6
4 8 10 4 13 -3 3 -45 -42 -94 -101z"/>
<path d="M4871 5854 c0 -11 3 -14 6 -6 3 7 2 16 -1 19 -3 4 -6 -2 -5 -13z"/>
<path d="M6080 5819 c-30 -16 -120 -53 -199 -81 -129 -47 -141 -53 -116 -61
17 -6 39 -5 58 1 30 10 29 10 -13 6 l-45 -4 55 16 c60 17 76 23 134 48 21 9
41 15 44 12 7 -7 119 54 139 76 22 24 9 21 -57 -13z"/>
<path d="M4881 5810 c0 -8 4 -24 9 -35 5 -13 9 -14 9 -5 0 8 -4 24 -9 35 -5
13 -9 14 -9 5z"/>
<path d="M5635 5681 c-39 -6 -38 -7 24 -14 66 -7 86 -3 61 13 -16 10 -24 10
-85 1z"/>
<path d="M5495 5650 c3 -5 24 -10 46 -10 24 0 38 4 34 10 -3 6 -24 10 -46 10
-24 0 -38 -4 -34 -10z"/>
<path d="M4907 4863 c-4 -3 -7 -11 -7 -17 0 -6 5 -5 12 2 6 6 9 14 7 17 -3 3
-9 2 -12 -2z"/>
<path d="M4535 3291 c-3 -5 -1 -12 5 -16 5 -3 10 1 10 9 0 18 -6 21 -15 7z"/>
<path d="M8047 2383 c-10 -9 -9 -23 1 -23 5 0 9 7 9 15 0 17 -1 18 -10 8z"/>
</g>
</svg>
